<svg width="20" height="20" viewBox="0 0 20 20" fill="none" xmlns="http://www.w3.org/2000/svg">
<g clip-path="url(#clip0_13_47)">
<path d="M1.98866 3.07495H17.9835C18.924 3.07495 19.6891 3.83558 19.6891 4.77051V14.5965C19.6891 15.5315 18.924 16.2921 17.9835 16.2921H1.98866C1.04819 16.2921 0.283054 15.5315 0.283054 14.5965V4.77051C0.283054 3.83558 1.04819 3.07495 1.98866 3.07495ZM2.21126 4.20532L2.43891 4.39376L9.30936 10.0811C9.7015 10.4056 10.2707 10.4056 10.6628 10.0811L17.5332 4.39376L17.7609 4.20532H2.21126ZM18.552 5.02137L12.9541 9.65526L18.552 13.3588V5.02137ZM1.98866 15.1617H17.9835C18.2582 15.1617 18.488 14.967 18.5406 14.7091L12.0424 10.4099L11.3904 10.9497C10.9835 11.2865 10.4848 11.4549 9.98603 11.4549C9.48731 11.4549 8.98859 11.2865 8.58171 10.9497L7.92964 10.4099L1.4315 14.7091C1.48418 14.967 1.71395 15.1617 1.98866 15.1617ZM1.42013 13.3588L7.01801 9.65529L1.42013 5.02137V13.3588Z" fill="#9781FD"/>
</g>
<defs>
<clipPath id="clip0_13_47">
<rect width="19.406" height="19.2917" fill="white" transform="matrix(-1 0 0 1 19.6891 0.0375977)"/>
</clipPath>
</defs>
</svg>
