<svg width="20" height="20" viewBox="0 0 20 20" fill="none" xmlns="http://www.w3.org/2000/svg">
<g clip-path="url(#clip0_13_56)">
<path d="M14.8435 8.20503V5.14993C14.8518 3.76758 14.2964 2.43839 13.3049 1.4691C12.3463 0.520261 11.0915 0.000854492 9.76268 0.000854492C9.74211 0.000854492 9.71742 0.000854492 9.69685 0.000854492C6.86226 0.00494431 4.55839 2.3116 4.55839 5.14993V8.20503C3.48873 8.33181 2.70706 9.22339 2.70706 10.3031V17.1658C2.70706 18.3314 3.64507 19.2925 4.81758 19.2925H14.5885C15.761 19.2925 16.699 18.3314 16.699 17.1658V10.3031C16.6949 9.22748 15.9132 8.33181 14.8435 8.20503ZM5.37709 5.14993H5.3812C5.3812 2.76148 7.31893 0.806548 9.70097 0.806548H9.70508C10.8364 0.802459 11.9226 1.24825 12.7248 2.04167C13.56 2.86373 14.0248 3.98434 14.0166 5.14993V8.20912H13.1115V5.14993C13.1198 4.22154 12.7495 3.32997 12.0871 2.67559C11.4618 2.05394 10.6143 1.70222 9.72977 1.70222H9.70508C7.81261 1.70222 6.28218 3.24817 6.28218 5.14584V8.20912H5.37709V5.14993V5.14993ZM12.2928 5.14993V8.20912H7.10911V5.14993C7.10911 3.70214 8.26927 2.52427 9.7092 2.52427H9.73388C10.4004 2.52427 11.0422 2.79011 11.5153 3.26044C12.0172 3.7594 12.3011 4.4424 12.2928 5.14993ZM15.9132 17.1781C15.9132 17.8938 15.329 18.4746 14.609 18.4746H4.83403C4.11407 18.4746 3.52987 17.8938 3.52987 17.1781V10.3236C3.52987 9.60783 4.11407 9.02708 4.83403 9.02708H14.609C15.329 9.02708 15.9132 9.60783 15.9132 10.3236V17.1781Z" fill="#9781FD"/>
<path d="M11.1244 13.4973C10.9434 12.8633 10.3633 12.4298 9.70097 12.4298C8.88227 12.4298 8.21579 13.0883 8.21579 13.9062C8.21579 14.5647 8.65188 15.1414 9.28956 15.3213V16.4665C9.28956 16.6914 9.47469 16.8754 9.70097 16.8754C9.92724 16.8754 10.1124 16.6914 10.1124 16.4665V15.3213C10.8982 15.0964 11.3548 14.2784 11.1244 13.4973ZM9.70097 14.5606C9.33482 14.5606 9.0386 14.2661 9.0386 13.9021C9.0386 13.5381 9.33482 13.2437 9.70097 13.2437C10.0671 13.2437 10.3633 13.5381 10.3633 13.9021C10.3633 14.2661 10.0671 14.5606 9.70097 14.5606Z" fill="#9781FD"/>
</g>
<defs>
<clipPath id="clip0_13_56">
<rect width="19.406" height="19.2917" fill="white" transform="translate(0 0.000854492)"/>
</clipPath>
</defs>
</svg>
