<svg width="28" height="25" viewBox="0 0 28 25" fill="none" xmlns="http://www.w3.org/2000/svg">
<path d="M12.7692 19.2259C13.9389 19.2259 15.0972 19.0128 16.1779 18.5987C17.2586 18.1846 18.2406 17.5777 19.0677 16.8126C19.8948 16.0475 20.5509 15.1392 20.9986 14.1396C21.4462 13.1399 21.6766 12.0685 21.6766 10.9865C21.6766 9.9045 21.4462 8.83309 20.9986 7.83344C20.5509 6.8338 19.8948 5.92549 19.0677 5.1604C18.2406 4.3953 17.2586 3.7884 16.1779 3.37433C15.0972 2.96026 13.9389 2.74715 12.7692 2.74715C10.4068 2.74715 8.14116 3.61522 6.47069 5.1604C4.80022 6.70558 3.86177 8.80129 3.86177 10.9865C3.86177 13.1717 4.80022 15.2674 6.47069 16.8126C8.14116 18.3578 10.4068 19.2259 12.7692 19.2259ZM22.1517 17.7236L27.4665 22.6397C27.6081 22.7665 27.7211 22.9181 27.7988 23.0857C27.8765 23.2533 27.9173 23.4335 27.9189 23.6158C27.9204 23.7982 27.8827 23.979 27.808 24.1477C27.7332 24.3164 27.6228 24.4696 27.4833 24.5985C27.3439 24.7273 27.178 24.8292 26.9955 24.8981C26.813 24.967 26.6175 25.0017 26.4204 24.9999C26.2233 24.9982 26.0285 24.9602 25.8474 24.8881C25.6664 24.8161 25.5026 24.7113 25.3658 24.5801L20.051 19.6639C17.6645 21.3775 14.6617 22.1854 11.6539 21.9232C8.64612 21.6609 5.85941 20.3482 3.8611 18.2523C1.86279 16.1564 0.803081 13.4349 0.897709 10.6417C0.992337 7.84855 2.23418 5.19372 4.37045 3.21768C6.50671 1.24163 9.3768 0.0929264 12.3965 0.00539543C15.4161 -0.0821355 18.3583 0.898091 20.6242 2.74653C22.89 4.59497 24.3091 7.17266 24.5926 9.95488C24.8761 12.7371 24.0027 15.5147 22.1502 17.7222L22.1517 17.7236Z" fill="#21272A"/>
</svg>
