<svg width="19" height="15" viewBox="0 0 19 15" fill="none" xmlns="http://www.w3.org/2000/svg">
<g clip-path="url(#clip0_13_147)">
<path d="M9.04137 7.22301C10.2553 7.22301 11.3064 6.90084 12.1654 6.2652C13.0242 5.62967 13.4597 4.85205 13.4597 3.95369C13.4597 3.05563 13.0243 2.27791 12.1653 1.64217C11.3063 1.00674 10.2552 0.68457 9.04137 0.68457C7.82726 0.68457 6.77633 1.00674 5.91743 1.64227C5.05853 2.27781 4.62299 3.05553 4.62299 3.95369C4.62299 4.85205 5.05853 5.62977 5.91743 6.26531C6.77661 6.90074 7.82768 7.22301 9.04137 7.22301ZM6.67767 2.2047C7.33671 1.71704 8.10983 1.48 9.04137 1.48C9.97277 1.48 10.746 1.71704 11.4052 2.2047C12.0643 2.69246 12.3848 3.26461 12.3848 3.95369C12.3848 4.64297 12.0643 5.21502 11.4052 5.70278C10.746 6.19054 9.97277 6.42758 9.04137 6.42758C8.11011 6.42758 7.33699 6.19044 6.67767 5.70278C6.01848 5.21513 5.69798 4.64297 5.69798 3.95369C5.69798 3.26461 6.01848 2.69246 6.67767 2.2047Z" fill="#A08BFA"/>
<path d="M16.7723 11.122C16.7476 10.8576 16.6975 10.569 16.6237 10.2644C16.5493 9.95743 16.4534 9.66726 16.3386 9.40205C16.2199 9.12793 16.0589 8.85723 15.8594 8.59782C15.6527 8.32857 15.4097 8.09411 15.1371 7.90119C14.852 7.69935 14.503 7.53708 14.0993 7.41871C13.6971 7.30096 13.2514 7.24131 12.7745 7.24131C12.5873 7.24131 12.4062 7.29817 12.0564 7.46666C11.8412 7.57053 11.5894 7.69065 11.3084 7.82352C11.0681 7.93681 10.7425 8.04296 10.3404 8.13906C9.94814 8.23299 9.54983 8.28062 9.15655 8.28062C8.76356 8.28062 8.36525 8.23299 7.97267 8.13906C7.571 8.04306 7.24533 7.93691 7.00544 7.82362C6.72707 7.692 6.47515 7.57187 6.25668 7.46655C5.90722 7.29806 5.72612 7.24121 5.53886 7.24121C5.06189 7.24121 4.61627 7.30096 4.21418 7.41881C3.81083 7.53697 3.46164 7.69925 3.17627 7.90129C2.90364 8.09432 2.66068 8.32867 2.45411 8.59782C2.25495 8.85723 2.09372 9.12783 1.97504 9.40215C1.86042 9.66737 1.76455 9.95743 1.69009 10.2644C1.6162 10.5686 1.56623 10.8572 1.54146 11.1224C1.51711 11.3816 1.50479 11.6513 1.50479 11.9239C1.50479 12.6324 1.80919 13.206 2.40946 13.6291C3.00231 14.0465 3.78662 14.2582 4.74069 14.2582H13.5735C14.5273 14.2582 15.3116 14.0465 15.9046 13.6291C16.505 13.2064 16.8094 12.6325 16.8094 11.9238C16.8093 11.6503 16.7968 11.3805 16.7723 11.122ZM15.1634 13.0528C14.7717 13.3287 14.2516 13.4628 13.5734 13.4628H4.74069C4.06233 13.4628 3.54226 13.3287 3.15066 13.0529C2.76649 12.7823 2.57979 12.4129 2.57979 11.9239C2.57979 11.6696 2.59112 11.4184 2.6138 11.1773C2.63591 10.9408 2.68111 10.681 2.74815 10.4049C2.81435 10.1322 2.8986 9.87635 2.99881 9.64469C3.09496 9.42256 3.2261 9.2026 3.38873 8.99072C3.54394 8.78878 3.72252 8.61553 3.91958 8.47593C4.1039 8.34535 4.33622 8.23847 4.60997 8.15832C4.86315 8.08417 5.14768 8.04358 5.45656 8.03747C5.49421 8.05228 5.56125 8.08055 5.66985 8.13295C5.89084 8.23951 6.14556 8.36109 6.42715 8.49416C6.74457 8.6439 7.15352 8.77915 7.6421 8.89586C8.1416 9.01537 8.65104 9.07605 9.15669 9.07605C9.66235 9.07605 10.1719 9.01537 10.6711 8.89596C11.1601 8.77905 11.569 8.6439 11.8868 8.49395C12.175 8.35767 12.4225 8.23961 12.6435 8.13295C12.7521 8.08065 12.8192 8.05228 12.8568 8.03747C13.1658 8.04358 13.4504 8.08417 13.7037 8.15832C13.9773 8.23847 14.2096 8.34545 14.394 8.47593C14.591 8.61542 14.7696 8.78868 14.9248 8.99082C15.0876 9.2026 15.2188 9.42266 15.3149 9.64458C15.4152 9.87655 15.4996 10.1323 15.5657 10.4048C15.6326 10.6814 15.6779 10.9413 15.7 11.1774V11.1777C15.7228 11.4178 15.7343 11.6688 15.7344 11.9239C15.7343 12.413 15.5476 12.7823 15.1634 13.0528Z" fill="#A08BFA"/>
</g>
<defs>
<clipPath id="clip0_13_147">
<rect width="18.3442" height="13.5736" fill="white" transform="translate(0 0.68457)"/>
</clipPath>
</defs>
</svg>
